<svg xmlns="http://www.w3.org/2000/svg" width="656" height="331" style="background:#eee" viewBox="0 0 656 331">
  <g fill="none" fill-rule="evenodd">
    <text font-family="BaronNeueBlack, Baron Neue" font-size="50" font-weight="700" letter-spacing=".261">
      <tspan x="188" y="196" fill="#333">upstack</tspan> <tspan x="395.974" y="196" fill="#4B83E7" letter-spacing=".521">Studio</tspan>
    </text>
    <path fill="#4B83E7" d="M81.9625,39.2160562 L74.0083333,33.8245796 L81.9625,28.433103 C83.3458333,27.4222011 83.3458333,26.074332 81.9625,25.4003974 L43.9208333,0.801785359 C42.5375,-0.209116506 40.4625,-0.209116506 39.0791667,0.801785359 L1.0375,25.4003974 C-0.345833333,26.4112993 -0.345833333,27.7591684 1.0375,28.433103 L8.99166667,33.8245796 L1.0375,39.2160562 C-0.345833333,40.2269581 -0.345833333,41.5748273 1.0375,42.2487618 L8.99166667,47.3032712 L1.0375,52.3577805 C-0.345833333,53.3686824 -0.345833333,54.7165515 1.0375,55.3904861 L39.0791667,79.9890981 C40.4625,81 42.5375,81 43.9208333,79.9890981 L81.9625,55.3904861 C83.3458333,54.3795842 83.3458333,53.0317151 81.9625,52.3577805 L74.0083333,47.3032712 L81.9625,42.2487618 C83.3458333,41.23786 83.3458333,39.8899908 81.9625,39.2160562 L81.9625,39.2160562 Z M9.3375,27.0852339 L41.5,6.53022926 L73.3166667,27.0852339 L41.5,47.9772057 L9.3375,27.0852339 L9.3375,27.0852339 Z M73.3166667,54.0426169 L41.5,74.9345888 L9.3375,54.0426169 L14.1791667,50.672944 L39.0791667,66.8473739 C40.4625,67.8582758 42.5375,67.8582758 43.9208333,66.8473739 L68.8208333,50.672944 L73.3166667,54.0426169 L73.3166667,54.0426169 Z M41.5,61.4558973 L9.3375,40.5639254 L14.525,37.1942525 L39.0791667,53.0317151 C40.4625,54.0426169 42.5375,54.0426169 43.9208333,53.0317151 L68.475,37.1942525 L73.6625,40.5639254 L41.5,61.4558973 L41.5,61.4558973 Z" transform="translate(75 125)"/>
  </g>
</svg>
