<svg xmlns="http://www.w3.org/2000/svg" width="690" height="690" viewBox="0 0 690 690"><g fill="none" fill-rule="evenodd"><path fill="#34AAFF" fill-opacity=".75" d="M291.85 645.027c29.136 46.917 76.378 46.915 105.514 0l239.763-386.075c29.137-46.918 7.98-84.952-47.24-84.952H99.327c-55.228 0-76.377 38.037-47.241 84.952l239.763 386.075z"/><path fill="#34AAFF" fill-opacity=".75" d="M151.075 564.443c-.153 55.228 39.912 80.26 89.481 55.914l407.92-200.355c49.572-24.348 51.785-67.814 4.955-97.077L237.412 62.967c-46.835-29.266-84.927-8.216-85.08 47.01l-1.257 454.466z"/><path fill="#34AAFF" fill-opacity=".75" d="M448.034 620.357c49.573 24.348 89.635-.689 89.482-55.914l-1.258-454.466c-.153-55.228-38.25-76.272-85.08-47.01L35.16 322.926c-46.835 29.266-44.614 72.73 4.956 97.077l407.92 200.355z"/><path fill="#34AAFF" fill-opacity=".75" d="M291.85 46.187c29.136-46.917 76.378-46.915 105.514 0l239.763 386.075c29.137 46.918 7.98 84.952-47.24 84.952H99.327c-55.228 0-76.377-38.037-47.241-84.952L291.849 46.187z"/><text fill="#FFF" font-family="Montserrat-Black, Montserrat" font-size="300" font-weight="700" transform="translate(-82 11)"><tspan x="307" y="479">A</tspan></text></g></svg>