<svg xmlns="http://www.w3.org/2000/svg" width="296" height="200" viewBox="0 0 296 200"><g fill="none" fill-rule="evenodd"><path fill="#4A4A4A" d="M220.096 159.429H15.344v-139.8c0-10.532 8.632-19.15 19.18-19.15h193.724c10.549 0 19.18 8.618 19.18 19.15v39.259h-8.152V19.629c0-6.224-4.795-11.011-11.028-11.011H34.525c-6.234 0-11.029 4.787-11.029 11.011v131.66h196.6v8.14z"/><path fill="#4A4A4A" d="M220.096 148.896H25.894V19.629a8.589 8.589 0 0 1 8.63-8.617h193.724a8.589 8.589 0 0 1 8.63 8.617v39.738h-8.15V19.629c0-.478 0-.478-.48-.478H34.525s-.48 0-.48.478v121.128h186.05v8.139z"/><path fill="#D8D8D8" d="M8 159h208v22H8z"/><path fill="#4A4A4A" d="M220.575 186.718H25.415C11.028 186.718 0 179.058 0 169.004V151.29h220.096v8.139H8.152v9.575c0 4.309 7.192 9.575 17.262 9.575h195.161v8.14z"/><path fill="#4A4A4A" d="M112.685 164.695h36.922v8.139h-36.922z"/><path fill="#D8D8D8" d="M223.78 176.745h65v16h-65zm0-116h65v16h-65z"/><path fill="#4A4A4A" d="M274.76 199.645h-37.881c-11.509 0-21.099-9.576-21.099-21.066V75.645c0-11.49 9.59-21.066 21.099-21.066h37.88c11.51 0 21.1 9.575 21.1 21.066v102.934c0 11.49-9.111 21.066-21.1 21.066zM237.358 62.718c-7.193 0-12.947 5.745-12.947 12.927v102.934c0 7.181 5.754 12.927 12.947 12.927h37.881c7.193 0 12.947-5.746 12.947-12.927V75.645c0-7.182-5.754-12.927-12.947-12.927h-37.881z"/><path fill="#4A4A4A" d="M220.096 74.208h71.927v8.139h-71.927zm28.77-9.575h13.906v8.139h-13.906zm-28.77 104.849h71.927v8.139h-71.927zm31.647 11.012h9.111v8.139h-9.111z"/><path d="M115.41 110.086l24.064-60.842 4.527 1.79-24.065 60.842zm43.71-10.663a1.987 1.987 0 0 1-2.82-.008l-.6-.602a2.004 2.004 0 0 1-.001-2.833l13.745-13.777a2.003 2.003 0 0 0 0-2.832L155.7 65.594a2.111 2.111 0 0 1-.058-2.888l.718-.78a1.889 1.889 0 0 1 2.762-.041l17.187 17.472c.777.79.775 2.063 0 2.84L159.12 99.422zm-55.991-.008a1.993 1.993 0 0 1-2.821.008L83.12 82.196a2.023 2.023 0 0 1 0-2.839l17.187-17.472a1.892 1.892 0 0 1 2.761.041l.719.78a2.102 2.102 0 0 1-.058 2.888L89.984 79.37a2.003 2.003 0 0 0 0 2.832L103.73 95.98c.78.782.784 2.046-.001 2.833l-.6.602z" fill="#34AAFF" stroke="#34AAFF" stroke-width="6"/></g></svg>