<svg xmlns="http://www.w3.org/2000/svg" width="229" height="200" viewBox="0 0 229 200">
  <g fill="none" fill-rule="evenodd">
    <rect width="221" height="22" x="4" y="147" fill="#D8D8D8"/>
    <rect width="221.391" height="6.279" x="3.441" y="140.782" fill="#4A4A4A"/>
    <g fill="#34AAFF" transform="translate(55.348 34.288)">
      <rect width="19" height="59" x="94" y="17"/>
      <rect width="19" height="72" x="64" y="4"/>
      <rect width="19" height="29.5" x="4.826" y="46.5"/>
      <rect width="19" height="49" x="34" y="27"/>
      <path d="M27.7935677 79.1623037L.857641486 79.1623037.857641486 43.3355545 27.7935677 43.3355545 27.7935677 79.1623037 27.7935677 79.1623037zM7.13039142 72.8833889L21.5208178 72.8833889 21.5208178 49.6144693 7.13039142 49.6144693 7.13039142 72.8833889 7.13039142 72.8833889zM57.3123909 79.1623037L30.3764647 79.1623037 30.3764647 21.5440267 57.3123909 21.5440267 57.3123909 79.1623037 57.3123909 79.1623037zM36.6492147 72.8833889L51.039641 72.8833889 51.039641 27.8229415 36.6492147 27.8229415 36.6492147 72.8833889 36.6492147 72.8833889zM87.2001995 79.1623037L60.2642732 79.1623037 60.2642732.12184674 87.2001995.12184674 87.2001995 79.1623037 87.2001995 79.1623037zM66.1680379 72.8833889L80.5584642 72.8833889 80.5584642 6.40076154 66.1680379 6.40076154 66.1680379 72.8833889 66.1680379 72.8833889zM116.719023 79.1623037L89.7830965 79.1623037 89.7830965 13.4183722 116.719023 13.4183722 116.719023 79.1623037 116.719023 79.1623037zM96.0558464 72.8833889L110.446273 72.8833889 110.446273 19.697287 96.0558464 19.697287 96.0558464 72.8833889 96.0558464 72.8833889z"/>
    </g>
    <path fill="#4A4A4A" d="M214.131139,133.395526 L14.1411119,133.395526 L14.1411119,21.1137554 C14.1411119,17.4202761 17.0929943,14.4654926 21.1518325,14.4654926 L207.489404,14.4654926 C211.179257,14.4654926 214.500125,17.4202761 214.500125,21.1137554 L214.500125,133.395526 L214.131139,133.395526 Z M20.4138619,127.116611 L207.858389,127.116611 L207.858389,21.1137554 C207.858389,20.7444074 207.489404,20.3750595 207.489404,20.3750595 L21.1518325,20.3750595 C20.7828472,20.3750595 20.7828472,20.7444074 20.7828472,21.1137554 L20.7828472,127.116611 L20.4138619,127.116611 Z"/>
    <path fill="#4A4A4A" d="M10.8202443,172.915754 C4.91647968,172.915754 0.119670905,168.114231 0.119670905,162.574012 L0.119670905,10.7720133 C0.119670905,4.86244645 4.91647968,0.430271299 10.8202443,0.430271299 L217.452007,0.430271299 C223.355772,0.430271299 228.15258,5.23179438 228.15258,10.7720133 L228.15258,162.574012 C228.15258,168.483579 223.355772,172.915754 217.452007,172.915754 L10.8202443,172.915754 L10.8202443,172.915754 Z M10.8202443,6.33983817 C8.60633259,6.33983817 6.76140613,8.18657782 6.76140613,10.7720133 L6.76140613,162.574012 C6.76140613,164.7901 8.60633259,167.006188 10.8202443,167.006188 L217.452007,167.006188 C219.665919,167.006188 221.510845,165.159448 221.510845,162.574012 L221.510845,10.7720133 C221.510845,8.55592575 219.665919,6.33983817 217.452007,6.33983817 L10.8202443,6.33983817 L10.8202443,6.33983817 Z"/>
    <rect width="22.139" height="6.279" x="103.067" y="154.079" fill="#4A4A4A"/>
    <rect width="27.674" height="6.279" x="77.733" y="180.044" fill="#4A4A4A" transform="rotate(-77.526 91.57 183.184)"/>
    <rect width="6.273" height="27.701" x="133.335" y="169.584" fill="#4A4A4A" transform="rotate(-12.498 136.471 183.434)"/>
    <rect width="82.284" height="6.279" x="72.81" y="193.599" fill="#4A4A4A"/>
  </g>
</svg>
