<svg xmlns="http://www.w3.org/2000/svg" width="296" height="200" viewBox="0 0 296 200">
  <g fill="none" fill-rule="evenodd">
    <path fill="#4A4A4A" d="M220.095902,159.428571 L15.3443766,159.428571 L15.3443766,19.6293436 C15.3443766,9.0965251 23.9755885,0.478764479 34.5248474,0.478764479 L228.247602,0.478764479 C238.796861,0.478764479 247.428073,9.0965251 247.428073,19.6293436 L247.428073,58.8880309 L239.276373,58.8880309 L239.276373,19.6293436 C239.276373,13.4054054 234.481255,8.61776062 228.247602,8.61776062 L34.5248474,8.61776062 C28.2911944,8.61776062 23.4960767,13.4054054 23.4960767,19.6293436 L23.4960767,151.289575 L220.095902,151.289575 L220.095902,159.428571 L220.095902,159.428571 Z"/>
    <path fill="#4A4A4A" d="M220.095902,148.895753 L25.8936356,148.895753 L25.8936356,19.6293436 C25.8936356,14.8416988 29.7297297,11.011583 34.5248474,11.011583 L228.247602,11.011583 C233.04272,11.011583 236.878814,14.8416988 236.878814,19.6293436 L236.878814,59.3667954 L228.727114,59.3667954 L228.727114,19.6293436 C228.727114,19.1505792 228.727114,19.1505792 228.247602,19.1505792 L34.5248474,19.1505792 C34.5248474,19.1505792 34.0453357,19.1505792 34.0453357,19.6293436 L34.0453357,140.756757 L220.095902,140.756757 L220.095902,148.895753 L220.095902,148.895753 Z"/>
    <rect width="208" height="22" x="8" y="159" fill="#D8D8D8"/>
    <path fill="#4A4A4A" d="M220.575414,186.718147 L25.4141238,186.718147 C11.0287707,186.718147 0,179.057915 0,169.003861 L0,151.289575 L220.095902,151.289575 L220.095902,159.428571 L8.15170009,159.428571 L8.15170009,169.003861 C8.15170009,173.312741 15.3443766,178.579151 25.4141238,178.579151 L220.575414,178.579151 L220.575414,186.718147 L220.575414,186.718147 Z"/>
    <rect width="36.922" height="8.139" x="112.685" y="164.695" fill="#4A4A4A"/>
    <g transform="translate(215.78 53.745)">
      <rect width="65" height="16" x="8" y="123" fill="#D8D8D8"/>
      <rect width="65" height="16" x="8" y="7" fill="#D8D8D8"/>
      <path fill="#4A4A4A" d="M58.9799477,145.899614 L21.0985179,145.899614 C9.5902354,145.899614 0,136.324324 0,124.833977 L0,21.8996139 C0,10.4092664 9.5902354,0.833976834 21.0985179,0.833976834 L58.9799477,0.833976834 C70.4882302,0.833976834 80.0784656,10.4092664 80.0784656,21.8996139 L80.0784656,124.833977 C80.0784656,136.324324 70.9677419,145.899614 58.9799477,145.899614 L58.9799477,145.899614 Z M21.5780296,8.97297297 C14.3853531,8.97297297 8.63121186,14.7181467 8.63121186,21.8996139 L8.63121186,124.833977 C8.63121186,132.015444 14.3853531,137.760618 21.5780296,137.760618 L59.4594595,137.760618 C66.652136,137.760618 72.4062772,132.015444 72.4062772,124.833977 L72.4062772,21.8996139 C72.4062772,14.7181467 66.652136,8.97297297 59.4594595,8.97297297 L21.5780296,8.97297297 L21.5780296,8.97297297 Z"/>
      <rect width="71.927" height="8.139" x="4.316" y="20.463" fill="#4A4A4A"/>
      <rect width="13.906" height="8.139" x="33.086" y="10.888" fill="#4A4A4A"/>
      <rect width="71.927" height="8.139" x="4.316" y="115.737" fill="#4A4A4A"/>
      <rect width="9.111" height="8.139" x="35.963" y="126.749" fill="#4A4A4A"/>
    </g>
    <g fill="#34AAFF" stroke="#34AAFF" stroke-width="6" transform="translate(82 49)">
      <rect width="65.428" height="4.868" x="14.991" y="29.126" transform="rotate(-68.42 47.705 31.56)"/>
      <g transform="translate(0 11.455)">
        <path d="M77.1206469 38.9677153C76.3439351 39.7461924 75.0854329 39.7469907 74.2999599 38.9597325L73.7000401 38.3584493C72.9189295 37.5755635 72.9150985 36.3100945 73.698585 35.5248273L87.4442722 21.7478999C88.2245791 20.9658196 88.2277587 19.7010036 87.4442722 18.9157364L73.698585 5.13880902C72.918278 4.35672867 72.8986741 3.05717824 73.6407765 2.25140688L74.3592235 1.47132039C75.1076037.658732577 76.3458784.64207138 77.1206469 1.42969397L94.3079246 18.9021242C95.0846364 19.6917224 95.082693 20.9648463 94.3079246 21.7413756L77.1206469 38.9677153zM21.1286116 38.9597325C20.347501 39.7426183 19.082693 39.7442446 18.3079246 38.9677153L1.12064688 21.7413756C.343935054 20.9628985.345878398 19.6897468 1.12064688 18.9021242L18.3079246 1.42969397C19.0846364.640095795 20.3272456.665549032 21.0693479 1.47132039L21.7877949 2.25140688C22.5361751 3.0639947 22.513473 4.35354187 21.7299865 5.13880902L7.98429925 18.9157364C7.20399232 19.6978168 7.20081275 20.9626328 7.98429925 21.7478999L21.7299865 35.5248273C22.5102934 36.3069077 22.5140043 37.5711911 21.7285313 38.3584493L21.1286116 38.9597325z"/>
      </g>
    </g>
  </g>
</svg>
