<svg xmlns="http://www.w3.org/2000/svg" width="229" height="200" viewBox="0 0 229 200"><g fill="none" fill-rule="evenodd"><path fill="#D8D8D8" d="M4 147h221v22H4z"/><path fill="#4A4A4A" d="M3.441 140.782h221.391v6.279H3.441z"/><g fill="#34AAFF"><path d="M149.348 51.288h19v59h-19zm-30-13h19v72h-19zm-59.174 42.5h19v29.5h-19zm29.174-19.5h19v49h-19z"/><path d="M83.142 113.45H56.206V77.624h26.936v35.826zm-20.664-6.279h14.39V83.902h-14.39v23.27zm50.182 6.28H85.724v-57.62h26.936v57.618zm-20.663-6.28h14.39v-45.06h-14.39v45.06zm50.551 6.28h-26.936V34.41h26.936v79.04zm-21.032-6.28h14.39V40.69h-14.39v66.482zm50.551 6.28h-26.936V47.705h26.936v65.744zm-20.663-6.28h14.39V53.985h-14.39v53.186z"/></g><path fill="#4A4A4A" d="M214.131 133.396H14.141V21.114c0-3.694 2.952-6.649 7.01-6.649H207.49c3.69 0 7.011 2.955 7.011 6.649v112.282h-.369zm-193.717-6.28h187.444V21.115c0-.37-.369-.739-.369-.739H21.152c-.37 0-.37.37-.37.739v106.003h-.368z"/><path fill="#4A4A4A" d="M10.82 172.916c-5.904 0-10.7-4.802-10.7-10.342V10.772C.12 4.862 4.916.43 10.82.43h206.632c5.904 0 10.7 4.802 10.7 10.342v151.802c0 5.91-4.796 10.342-10.7 10.342H10.82zm0-166.576c-2.214 0-4.059 1.847-4.059 4.432v151.802c0 2.216 1.845 4.432 4.06 4.432h206.631c2.214 0 4.059-1.847 4.059-4.432V10.772c0-2.216-1.845-4.432-4.059-4.432H10.82z"/><path fill="#4A4A4A" d="M103.067 154.079h22.139v6.279h-22.139zm-17.552 41.937l5.978-27.02 6.13 1.356-5.977 27.02zm44.897-25.426l6.124-1.357 5.995 27.045-6.124 1.357z"/><path fill="#4A4A4A" d="M72.81 193.599h82.284v6.279H72.81z"/></g></svg>